<svg xmlns="http://www.w3.org/2000/svg" viewBox="0 0 512 512" role="img" aria-label="Word Guess">
  <rect width="512" height="512" fill="#17212b"/>
  <rect x="70" y="72" width="372" height="372" rx="34" fill="#f7f4ee"/>
  <g fill="#2f9f88">
    <rect x="102" y="104" width="82" height="82" rx="14"/>
    <rect x="215" y="104" width="82" height="82" rx="14"/>
    <rect x="328" y="104" width="82" height="82" rx="14"/>
  </g>
  <g fill="#f2bd45">
    <rect x="102" y="215" width="82" height="82" rx="14"/>
    <rect x="215" y="215" width="82" height="82" rx="14"/>
  </g>
  <rect x="328" y="215" width="82" height="82" rx="14" fill="#6f7780"/>
  <g fill="#17212b" font-family="Manrope, Arial, sans-serif" font-size="52" font-weight="800" text-anchor="middle">
    <text x="143" y="162">W</text>
    <text x="256" y="162">O</text>
    <text x="369" y="162">R</text>
    <text x="143" y="273">D</text>
    <text x="256" y="273">S</text>
  </g>
  <path fill="#e05d44" d="M109 356h294c12 0 22 10 22 22s-10 22-22 22H109c-12 0-22-10-22-22s10-22 22-22Z"/>
</svg>
